<svg width="25" height="25" viewBox="0 0 25 25" fill="none" xmlns="http://www.w3.org/2000/svg">
<path d="M19.9349 4.56494H5.06494C4.4019 4.56494 3.76602 4.82833 3.29717 5.29717C2.82833 5.76602 2.56494 6.4019 2.56494 7.06494V17.9349C2.56494 18.598 2.82833 19.2339 3.29717 19.7027C3.76602 20.1715 4.4019 20.4349 5.06494 20.4349H19.9349C20.598 20.4349 21.2339 20.1715 21.7027 19.7027C22.1715 19.2339 22.4349 18.598 22.4349 17.9349V7.06494C22.4349 6.4019 22.1715 5.76602 21.7027 5.29717C21.2339 4.82833 20.598 4.56494 19.9349 4.56494ZM21.4349 14.4949H15.0149C14.4845 14.4949 13.9758 14.2842 13.6007 13.9092C13.2257 13.5341 13.0149 13.0254 13.0149 12.4949C13.0149 11.9645 13.2257 11.4558 13.6007 11.0807C13.9758 10.7057 14.4845 10.4949 15.0149 10.4949H21.4349V14.4949ZM15.0149 9.49494C14.2193 9.49494 13.4562 9.81101 12.8936 10.3736C12.331 10.9362 12.0149 11.6993 12.0149 12.4949C12.0149 13.2906 12.331 14.0537 12.8936 14.6163C13.4562 15.1789 14.2193 15.4949 15.0149 15.4949H21.4349V17.9349C21.4349 18.3328 21.2769 18.7143 20.9956 18.9956C20.7143 19.2769 20.3328 19.4349 19.9349 19.4349H5.06494C4.66712 19.4349 4.28559 19.2769 4.00428 18.9956C3.72298 18.7143 3.56494 18.3328 3.56494 17.9349V7.06494C3.56494 6.66712 3.72298 6.28559 4.00428 6.00428C4.28559 5.72298 4.66712 5.56494 5.06494 5.56494H19.9349C20.3328 5.56494 20.7143 5.72298 20.9956 6.00428C21.2769 6.28559 21.4349 6.66712 21.4349 7.06494V9.49494H15.0149Z" fill="white"/>
<path d="M15.019 13.496C15.5713 13.496 16.019 13.0483 16.019 12.496C16.019 11.9437 15.5713 11.496 15.019 11.496C14.4668 11.496 14.019 11.9437 14.019 12.496C14.019 13.0483 14.4668 13.496 15.019 13.496Z" fill="white"/>
</svg>
